<?xml version="1.0" encoding="UTF-8"?>
<svg data-bbox="77.67 28.28 245.33 343.598" viewBox="0 0 400 400" xmlns="http://www.w3.org/2000/svg" data-type="ugc">
    <g>
        <linearGradient y2="146.763" x2="200.337" y1="272.408" x1="200.337" gradientUnits="userSpaceOnUse" id="f7e8e679-987a-457e-9ac8-fe69ece80fac">
            <stop offset="0" stop-color="#68418e"/>
            <stop offset="1" stop-color="#914c93"/>
        </linearGradient>
        <path fill="url(#f7e8e679-987a-457e-9ac8-fe69ece80fac)" d="M263.16 209.59c0 34.695-28.125 62.82-62.82 62.82s-62.82-28.125-62.82-62.82 28.125-62.82 62.82-62.82 62.82 28.125 62.82 62.82z"/>
        <path d="M200.36 272.41c-34.08 0-61.8-27.14-62.78-60.99-.02.65-.05 1.31-.05 1.97 0 36.79 27.83 66.62 62.17 66.62 29.39 0 54-21.86 60.48-51.23-8.11 25.3-31.82 43.63-59.82 43.63z" fill="#9b9d9e"/>
        <linearGradient y2="28.284" x2="200.291" y1="98.81" x1="200.291" gradientUnits="userSpaceOnUse" id="5dacf75d-7c07-4665-afd2-ec75d86805eb">
            <stop offset="0" stop-color="#ce437b"/>
            <stop offset="1" stop-color="#d64768"/>
        </linearGradient>
        <path d="M91.65 95.78c3.79 3.79 9.84 4.06 13.94.62 25.63-21.46 58.65-34.39 94.7-34.39s69.07 12.92 94.7 34.39c4.11 3.44 10.15 3.16 13.94-.62l9.24-9.24c4.27-4.27 4.01-11.29-.59-15.2-31.62-26.85-72.56-43.06-117.29-43.06S114.62 44.49 83 71.34c-4.6 3.91-4.85 10.93-.59 15.2l9.24 9.24z" fill="url(#5dacf75d-7c07-4665-afd2-ec75d86805eb)"/>
        <path d="M200.29 33.19c40.23 0 77.59 11.5 108.55 31.18C278.58 41.71 241 28.28 200.29 28.28c-40.71 0-78.29 13.43-108.55 36.09 30.96-19.68 68.32-31.18 108.55-31.18z" opacity=".32"/>
        <linearGradient y2="86.922" x2="200.291" y1="140.606" x1="200.291" gradientUnits="userSpaceOnUse" id="b150d9d8-3c49-4c5a-b58d-5a0a74c7c08c">
            <stop offset="0" stop-color="#a74b92"/>
            <stop offset="1" stop-color="#b7458e"/>
        </linearGradient>
        <path d="M133.5 137.63c3.56 3.56 9.2 4 13.21.96 14.9-11.27 33.45-17.95 53.57-17.95 20.12 0 38.67 6.69 53.57 17.95 4.01 3.03 9.66 2.59 13.21-.96l9.56-9.56c4.3-4.3 3.88-11.41-.91-15.16-20.81-16.27-46.98-25.98-75.44-25.98s-54.63 9.71-75.44 25.98c-4.8 3.75-5.22 10.86-.91 15.16l9.58 9.56z" fill="url(#b150d9d8-3c49-4c5a-b58d-5a0a74c7c08c)"/>
        <path d="M200.29 91.64c28.71 0 55.26 8.44 76.97 22.75-.45-.54-.96-1.04-1.53-1.49-20.81-16.27-46.98-25.98-75.44-25.98s-54.63 9.71-75.44 25.98c-.58.45-1.08.95-1.53 1.49 21.71-14.32 48.26-22.75 76.97-22.75z" opacity=".32"/>
        <linearGradient y2="152.007" x2="200.337" y1="371.87" x1="200.337" gradientUnits="userSpaceOnUse" id="fcfb5a62-e218-4c48-9391-8e0f983c5b5e">
            <stop offset="0" stop-color="#513e8d"/>
            <stop offset="1" stop-color="#7d4590"/>
        </linearGradient>
        <path d="M283.8 178.8c4.11 11.12 6.06 23.29 5.33 36-2.59 45.22-39.49 81.63-84.73 83.64-50.98 2.27-93.02-38.38-93.02-88.86 0-10.77 1.92-21.1 5.44-30.65 1.68-4.57.64-9.7-2.81-13.14l-11.13-11.13c-4.04-4.04-10.89-2.89-13.35 2.28-7.6 15.95-11.86 33.8-11.86 52.65 0 36.55 16 69.35 41.37 91.82l62.81 62.81c10.21 10.21 26.76 10.21 36.97 0l62.81-62.81C307 278.93 323 246.14 323 209.59c0-19.01-4.33-37-12.05-53.05-2.38-4.96-8.95-6.08-12.84-2.19l-11.55 11.55c-3.39 3.38-4.41 8.42-2.76 12.9z" fill="url(#fcfb5a62-e218-4c48-9391-8e0f983c5b5e)"/>
        <path d="M111.48 218.14c0 50.47 42.04 91.13 93.02 88.86 45.24-2.02 82.14-38.43 84.73-83.64.19-3.25.19-6.45.04-9.62-.02.39-.01.79-.04 1.18-2.59 45.22-39.49 81.63-84.73 83.64-49.57 2.21-90.68-36.18-92.91-84.71a87.1 87.1 0 0 0-.11 4.29z" opacity=".5" fill="#4b3186"/>
    </g>
</svg>
